<svg xmlns="http://www.w3.org/2000/svg" id="svg2" width="128" height="128" viewBox="0 0 728 728"><title id="title1">Kayro</title><style id="style1">path{fill:#000}@media (prefers-color-scheme:dark){path{fill:#fff}}</style><g id="g2"><title id="title2">Layer 1</title><g id="svg_1"><path id="svg_2" d="M319.3 109.3c17 0 30.1.6 44.3 3.3a254 254 0 0 1 105 44l-55 81q-7-3.7-13.7-7.8a156 156 0 0 0-113-18.5 165 165 0 0 0-76.3 41.3l-2 2c-27.6 26.2-42.9 65.5-44.3 103.2-1 44.4 15 84.5 45.4 116.8 18.3 19 40.4 29.5 65 39v-72h82l1 74c13.8-4 13.8-4 27-9.2 19.2-8.2 20.2-11 30-15.8l55 77c-7.5 9.6-50.3 40.5-119 49-63.6 8.8-119-12.7-144.5-25.2-23.2-10.4-42.4-26.7-61.4-43a254.3 254.3 0 0 1-25.2-341.7l2-2.7c50.7-63.7 118.4-86.3 170.3-93.7 9-1 17.3-1 26.4-1"/><path id="svg_3" d="m534.9 169.4 125.7.2-137.8 196 139.8 192-131.3-1.5-138.7-189.5z"/></g></g></svg>