<?xml version="1.0" encoding="UTF-8"?>
<svg version="1.1" xmlns="http://www.w3.org/2000/svg" width="128" height="128" viewBox="0 0 609.1970855785456 525.4569100736969">
  <style>
    path { fill: #000; }
    @media (prefers-color-scheme: dark) {
      path { fill: #fff; }
    }
  </style>

  <g transform="translate(-204.7754348731515,-251.60287864315154)">
    <path d="M0 0 C1.37451324 -0.00101212 1.37451324 -0.00101212 2.77679443 -0.00204468 C16.83933091 0.01439608 30.46893356 0.59871217 44.3125 3.25 C45.21387695 3.41097168 46.11525391 3.57194336 47.04394531 3.73779297 C70.45150012 7.97557811 92.99475876 15.74118614 114.3125 26.25 C114.96541016 26.56759277 115.61832031 26.88518555 116.29101562 27.21240234 C127.89173976 32.91338126 138.57660667 40.08508295 149.3125 47.25 C147.73683569 51.39013394 145.82123985 54.54489939 143.1875 58.125 C142.27974853 59.37260684 141.37361492 60.62139178 140.46875 61.87109375 C139.96730469 62.56315918 139.46585938 63.25522461 138.94921875 63.96826172 C135.81305243 68.34036947 132.75464701 72.76683918 129.6875 77.1875 C129.00905029 78.16452881 128.33060059 79.14155762 127.6315918 80.14819336 C126.23120969 82.16503824 124.83106585 84.18204858 123.43115234 86.19921875 C121.32760607 89.22824782 119.22102933 92.25514354 117.11328125 95.28125 C109.47649494 106.24596888 101.86417904 117.22646852 94.3125 128.25 C89.68475247 125.72374168 85.11267946 123.14351867 80.625 120.375 C47.24879651 100.42072544 5.72666677 93.12694178 -32.4375 101.87109375 C-61.84543936 109.35118136 -86.72316297 122.24063415 -108.6875 143.25 C-109.3578125 143.86875 -110.028125 144.4875 -110.71875 145.125 C-138.35162376 171.44202263 -153.57227085 210.75014067 -154.97265625 248.4375 C-155.9247531 292.85844867 -140.10657826 332.9558681 -109.66015625 365.23828125 C-91.26674122 384.20515599 -69.16905076 394.72939693 -44.6875 404.25 C-44.6875 380.49 -44.6875 356.73 -44.6875 332.25 C-17.6275 332.25 9.4325 332.25 37.3125 332.25 C37.6425 356.67 37.9725 381.09 38.3125 406.25 C52.17793757 402.31149206 52.17793757 402.31149206 65.375 397.0625 C66.6115332 396.49982422 66.6115332 396.49982422 67.87304688 395.92578125 C74.32332956 392.9067113 80.35993684 389.37576723 86.28930664 385.43676758 C89.29553479 383.44207783 91.78449781 381.98850805 95.3125 381.25 C96.43785156 382.84714844 96.43785156 382.84714844 97.5859375 384.4765625 C106.2184655 396.72171614 114.90331592 408.92567271 123.6875 421.0625 C128.54800167 427.7781003 133.36057417 434.52533313 138.11547852 441.31616211 C140.32397892 444.46440235 142.54816855 447.59019721 144.875 450.65234375 C145.6175 451.63332031 146.36 452.61429688 147.125 453.625 C147.77082031 454.45773437 148.41664063 455.29046875 149.08203125 456.1484375 C149.48808594 456.84195312 149.89414062 457.53546875 150.3125 458.25 C149.21305976 461.54832072 148.83300494 461.85461845 146.05859375 463.6328125 C145.37732422 464.07326904 144.69605469 464.51372559 143.99414062 464.9675293 C143.25357422 465.43199463 142.51300781 465.89645996 141.75 466.375 C140.98494141 466.86073486 140.21988281 467.34646973 139.43164062 467.84692383 C106.37057867 488.6461413 70.20804132 502.42018227 31.3125 507.25 C30.62978027 507.3442627 29.94706055 507.43852539 29.24365234 507.53564453 C-18.44590238 513.33726827 -67.70838265 504.19030478 -110.6875 483.25 C-111.48929688 482.85941406 -112.29109375 482.46882813 -113.1171875 482.06640625 C-133.11404867 472.19740519 -151.784575 459.70602581 -168.17578125 444.55078125 C-170.26393926 442.63798955 -172.38474009 440.78740995 -174.53125 438.94140625 C-186.84070035 428.18840571 -197.17522745 415.48418859 -206.6875 402.25 C-207.34975586 401.33299316 -207.34975586 401.33299316 -208.02539062 400.39746094 C-233.03484826 365.38037855 -247.83959981 323.83687408 -252.6875 281.25 C-252.78321289 280.4144458 -252.87892578 279.5788916 -252.97753906 278.71801758 C-253.78501018 270.88279833 -253.93056438 263.0596587 -253.9375 255.1875 C-253.93817474 254.49157745 -253.93884949 253.79565491 -253.93954468 253.0786438 C-253.85329916 196.4814346 -234.6506797 141.71404375 -199.6875 97.25 C-199.0171875 96.38632812 -198.346875 95.52265625 -197.65625 94.6328125 C-156.10022818 42.37766566 -95.4511926 10.20148979 -29.6875 1.25 C-28.58281372 1.09313721 -28.58281372 1.09313721 -27.45581055 0.93310547 C-18.3613232 -0.17460091 -9.1470835 0.00604383 0 0 Z " transform="translate(464.6875,257.75)"/>
    <path d="M0 0 C0.94207243 0.00184359 1.88414486 0.00368717 2.85476494 0.00558662 C3.93452599 0.0028373 5.01428703 0.00008797 6.12676811 -0.00274467 C7.91132408 0.00804115 7.91132408 0.00804115 9.73193169 0.01904488 C11.60505531 0.0186068 11.60505531 0.0186068 13.51601982 0.01815987 C16.9456379 0.01931664 20.37501687 0.02936513 23.80459261 0.04330778 C27.38671894 0.05578808 30.96884825 0.0569835 34.55099297 0.0593586 C41.33665655 0.06558133 48.12225589 0.08200283 54.90789115 0.10205758 C62.63208625 0.12439195 70.35628437 0.1354038 78.0805037 0.14544845 C93.97200001 0.16636841 109.86343218 0.20155973 125.75488091 0.24609566 C124.65356949 1.98981314 123.5505291 3.73243869 122.44677544 5.47461128 C121.83270836 6.4451545 121.21864128 7.41569771 120.58596611 8.41565132 C118.07337564 12.29954895 115.37476915 16.02468974 112.62988091 19.74609566 C108.13288868 25.90921862 103.732906 32.12497649 99.44238091 38.43359566 C92.64111988 48.43344396 85.73652902 58.35934909 78.82079887 68.28027534 C76.7456196 71.25939114 74.67356307 74.24065379 72.60253716 77.22265816 C60.77797799 94.24755435 48.87849003 111.18373183 36.53710747 127.83886909 C33.60248002 131.80262617 30.67920792 135.77473687 27.75488091 139.74609566 C26.58826977 141.32946991 25.42160308 142.91280322 24.25488091 144.49609566 C23.67738091 145.27984566 23.09988091 146.06359566 22.50488091 146.87109566 C17.25488091 153.99609566 17.25488091 153.99609566 15.50268364 156.37402534 C14.34327448 157.9475439 13.18393136 159.52111112 12.0246563 161.09472847 C8.99750667 165.20364205 5.96900239 169.31154781 2.93847466 173.41797066 C2.31134575 174.26810738 1.68421684 175.11824409 1.03808403 175.99414253 C-0.15419583 177.61034412 -1.3468759 179.22625059 -2.54004097 180.84179878 C-3.61142874 182.29446333 -4.67886769 183.75005135 -5.74170113 185.20898628 C-6.73671699 186.55721824 -7.7532764 187.88983645 -8.79150581 189.20508003 C-11.46861364 192.34368992 -11.46861364 192.34368992 -12.03906441 196.21533394 C-11.15479182 198.47713572 -10.08875736 200.0415688 -8.57715034 201.94140816 C-8.02091988 202.64781441 -7.46468941 203.35422066 -6.89160347 204.08203316 C-6.28638863 204.83742378 -5.68117378 205.59281441 -5.05761909 206.37109566 C-3.7722897 207.99856309 -2.48713832 209.62617114 -1.20215034 211.25390816 C-0.54295601 212.08438667 0.11623833 212.91486519 0.79540825 213.77050972 C3.80744681 217.57590107 6.78045538 221.41128517 9.75488091 225.24609566 C13.27321074 229.77353593 16.79458209 234.29853688 20.32519341 238.81640816 C31.10675801 252.62207016 41.63342801 266.55647737 51.69238091 280.89843941 C54.82165479 285.35403471 58.00063874 289.77260607 61.19238091 294.18359566 C61.73169243 294.92907661 62.27100395 295.67455757 62.82665825 296.44262886 C64.46867372 298.71097761 66.11160139 300.9786625 67.75488091 303.24609566 C74.63813708 312.74376367 81.48872173 322.26041599 88.23779106 331.85400581 C94.55671132 340.82393162 101.00603645 349.69983616 107.44872856 358.58105659 C127.75488091 386.57707829 127.75488091 386.57707829 127.75488091 388.24609566 C111.14322829 388.62084533 94.53295806 388.90246936 77.91809273 389.07509041 C70.20225311 389.15739556 62.48904796 389.26946044 54.77490044 389.45312691 C48.04631313 389.61325094 41.31963372 389.71597134 34.58919406 389.75151157 C31.02836288 389.77227461 27.47298598 389.82056057 23.91391563 389.93777657 C2.33375949 390.6214472 2.33375949 390.6214472 -3.59769821 386.68465614 C-7.41217494 383.02286495 -9.9921962 378.87930394 -12.29437637 374.14920902 C-13.58848422 371.55877747 -15.23384956 369.27919262 -16.94433784 366.94922066 C-17.94354778 365.46694153 -18.93973344 363.98261844 -19.93261909 362.49609566 C-24.10076548 356.33360013 -28.36368436 350.30786324 -32.87402534 344.39062691 C-40.25863671 334.59719668 -47.32359216 324.55703187 -54.44067574 314.56811714 C-57.81185103 309.8406365 -61.21497917 305.13664764 -64.62011909 300.43359566 C-68.97285531 294.41980349 -73.2848857 288.37948018 -77.55761909 282.30859566 C-85.11187174 271.58697973 -92.86414244 261.09304655 -101.00683784 250.81201363 C-104.96097026 245.81165769 -108.85102067 240.76160191 -112.7319355 235.70434761 C-116.76908204 230.44450903 -120.83210422 225.20672585 -124.93261909 219.99609566 C-125.62750435 219.11292671 -125.62750435 219.11292671 -126.33642769 218.21191597 C-127.22991493 217.07660898 -128.123467 215.94135301 -129.01709175 214.80615425 C-133.69408754 208.86460294 -133.69408754 208.86460294 -135.73340034 206.20312691 C-136.74802975 204.88961442 -137.78778402 203.59516181 -138.85058784 202.32031441 C-140.30761909 200.49609566 -140.30761909 200.49609566 -142.24511909 197.24609566 C-141.23028157 193.68471818 -139.50664525 190.96809529 -137.30371284 188.02343941 C-136.72468208 187.24387886 -136.14565132 186.46431831 -135.54907417 185.66113472 C-134.933144 184.84354683 -134.31721382 184.02595894 -133.68261909 183.18359566 C-133.04928658 182.3337812 -132.41595406 181.48396675 -131.76342964 180.60840034 C-129.92951628 178.1501015 -128.0885801 175.69723929 -126.24511909 173.24609566 C-125.3986052 172.11730918 -124.55222647 170.9884213 -123.70605659 169.85937691 C-122.28282955 167.96260341 -120.8583658 166.06675718 -119.43261909 164.17187691 C-116.48764756 160.23297748 -113.58135927 156.266373 -110.67749214 152.29712105 C-107.51007394 147.96811659 -104.32972698 143.64890931 -101.14282417 139.33423042 C-94.24244056 129.98958477 -87.41886531 120.59216085 -80.630373 111.16601753 C-78.78125216 108.60318949 -76.92017152 106.04917353 -75.05761909 103.49609566 C-68.11864552 93.95863616 -61.28896576 84.35716521 -54.62817574 74.62353706 C-50.91310908 69.2002233 -47.14787229 63.81338642 -43.37011909 58.43359566 C-38.65394503 51.7166401 -33.98977129 44.96727545 -29.37011909 38.18359566 C-25.43714726 32.41003031 -21.44133306 26.7031462 -17.29199409 21.08203316 C-14.08069665 16.63279281 -11.00234166 12.09224021 -7.92431831 7.55005074 C-7.25166939 6.56234688 -7.25166939 6.56234688 -6.56543159 5.55468941 C-5.96625923 4.66994942 -5.96625923 4.66994942 -5.35498238 3.76733589 C-2.8329751 0.31053269 -2.8329751 0.31053269 0 0 Z " transform="translate(680.2451190948486,317.75390434265137)"/>
  </g>
</svg>
